<svg xmlns="http://www.w3.org/2000/svg" viewBox="0 0 72 24" fill="none">
  <path d="M11.55 10.03c0-.25-.02-.5-.06-.75h-5.68v2.11h3.32c-.15.87-.79 1.62-1.77 1.62-1.11 0-2.09-.91-2.09-2.28 0-1.37.98-2.28 2.18-2.28.65 0 1.14.24 1.56.57l1.59-1.54c-.7-.72-1.76-1.28-3.19-1.28-2.37 0-4.37 1.79-4.37 4.53 0 2.74 2 4.53 4.52 4.53 2.02 0 3.53-.95 4.2-2.62.33-.85.47-1.63.47-2.11h.05v.01Z" fill="#FF9900"/>
  <path d="M17.11 6.88c-2.37 0-4.37 1.79-4.37 4.53 0 2.74 2 4.53 4.37 4.53 2.37 0 4.37-1.79 4.37-4.53 0-2.74-2-4.53-4.37-4.53Zm0 6.96c-.96 0-1.82-.88-1.82-2.43s.86-2.43 1.82-2.43c.96 0 1.82.88 1.82 2.43s-.86 2.43-1.82 2.43Z" fill="#FF9900"/>
  <path d="M27.05 6.88c-2.37 0-4.37 1.79-4.37 4.53 0 2.74 2 4.53 4.37 4.53 2.37 0 4.37-1.79 4.37-4.53 0-2.74-2-4.53-4.37-4.53Zm0 6.96c-.96 0-1.82-.88-1.82-2.43s.86-2.43 1.82-2.43c.96 0 1.82.88 1.82 2.43s-.86 2.43-1.82 2.43Z" fill="#FF9900"/>
  <path d="M41.43 7.39h-2.7l-2.52 6.64-2.52-6.64h-2.76l3.79 8.77c.38.87.69 1.45 1.28 1.86.59.41 1.2.58 2.07.58h.79v-1.93h-.49c-.47 0-.72-.11-.93-.29-.21-.19-.33-.43-.48-.84l-.27-.63-2.6-6.09h.01l2.64 6.09 2.64-6.09h-.01l.06.21Z" fill="#FF9900"/>
  <path d="M49.84 10.27c-.39-.19-.91-.37-1.33-.53-.51-.19-.92-.35-1.13-.55-.21-.2-.31-.42-.31-.69 0-.38.23-.7.68-.95.45-.25.99-.38 1.62-.38.69 0 1.28.16 1.77.48.26.17.48.39.66.65l1.87-.96c-.32-.58-.79-1.06-1.37-1.41-.8-.49-1.78-.74-2.93-.74-1.08 0-2.02.24-2.82.72-.8.48-1.2 1.16-1.2 2.05 0 .92.4 1.55 1.2 2.02.38.22.86.41 1.36.58.58.2 1.02.37 1.26.55.24.18.36.43.36.75 0 .41-.24.75-.72 1.02-.48.27-1.06.41-1.74.41-.82 0-1.53-.21-2.13-.62-.38-.27-.7-.62-.93-1.03l-1.85.99c.4.79.98 1.43 1.71 1.89.93.59 2.03.89 3.28.89 1.2 0 2.23-.24 3.09-.72.86-.48 1.29-1.22 1.29-2.21 0-.87-.39-1.49-1.17-1.97l.01-.01Z" fill="#FF9900"/>
</svg>
