<svg xmlns="http://www.w3.org/2000/svg" viewBox="0 0 72 24" fill="none">
  <path d="M12.09 5.81c-.43.12-.82.35-1.14.68L5.68 12c-.43.46-.43 1.19 0 1.65l5.27 5.51c.43.46 1.14.46 1.57 0s.43-1.19 0-1.65L7.97 13.1h15.97c.63 0 1.14-.52 1.14-1.16s-.51-1.16-1.14-1.16H7.97l4.55-4.41c.43-.46.43-1.19 0-1.65-.2-.22-.47-.33-.74-.35-.12-.01-.24 0-.35.03l.66-.75Z" fill="#0B8B47"/>
  <path d="M32.61 8.03c-1.33 0-2.8.31-3.70 1.45v-1.03c0-.39-.32-.71-.71-.71h-1.79c-.39 0-.71.32-.71.71v8.65c0 .39.32.71.71.71h1.92c.39 0 .71-.32.71-.71v-3.36c0-1.16.38-1.96 1.55-1.96 1.03 0 1.38.59 1.38 1.63v3.69c0 .39.32.71.71.71h1.92c.39 0 .71-.32.71-.71v-4.04c0-2.28-1.22-3.71-3.9-3.71h.29Z" fill="#0B8B47"/>
  <path d="M42.42 8.03c-1.51 0-2.74.64-3.47 1.62l-.04-1.35c0-.39-.32-.71-.71-.71h-1.79c-.39 0-.71.32-.71.71v8.65c0 .39.32.71.71.71h1.92c.39 0 .71-.32.71-.71v-2.73c.61.74 1.54 1.2 2.63 1.2 2.02 0 3.67-1.55 3.67-4.28s-1.66-4.21-3.87-4.21h-.05Zm-.86 5.81c-.72 0-1.26-.43-1.26-1.47 0-1.04.53-1.48 1.26-1.48.73 0 1.25.44 1.25 1.48 0 1.04-.52 1.47-1.25 1.47Z" fill="#0B8B47"/>
  <path d="M50.98 8.03c-2.21 0-3.96 1.49-3.96 4.08 0 2.59 1.75 4.08 3.96 4.08 2.21 0 3.96-1.49 3.96-4.08 0-2.59-1.75-4.08-3.96-4.08Zm0 5.79c-.87 0-1.42-.68-1.42-1.71s.55-1.72 1.42-1.72c.87 0 1.42.68 1.42 1.72s-.55 1.71-1.42 1.71Z" fill="#0B8B47"/>
  <path d="M60.82 8.03c-1.97 0-3.74.93-3.74 2.79 0 1.43.87 2.16 2.09 2.63l1.41.53c.61.23.82.44.82.82 0 .51-.45.82-1.09.82-.83 0-1.37-.35-1.6-1.04l-1.77.87c.61 1.38 1.93 2.08 3.54 2.08 2.18 0 3.88-.97 3.88-2.96 0-1.52-.92-2.24-2.13-2.7l-1.28-.46c-.48-.17-.68-.35-.68-.7 0-.46.42-.73.96-.73.61 0 1.05.28 1.34.88l1.66-.87c-.57-1.25-1.82-2.06-3.41-2.06Z" fill="#0B8B47"/>
  <path d="M69.33 8.03c-2.21 0-3.96 1.49-3.96 4.08 0 2.59 1.75 4.08 3.96 4.08 2.21 0 3.96-1.49 3.96-4.08 0-2.59-1.75-4.08-3.96-4.08Zm0 5.79c-.87 0-1.42-.68-1.42-1.71s.55-1.72 1.42-1.72c.87 0 1.42.68 1.42 1.72s-.55 1.71-1.42 1.71Z" fill="#0B8B47"/>
</svg>
