<svg xmlns="http://www.w3.org/2000/svg" viewBox="0 0 72 24" fill="none">
  <path d="M8.84 6.89c-1.52 0-2.98.49-4.14 1.4C3.54 9.2 3 10.57 3 12c0 1.43.54 2.8 1.7 3.71 1.16.91 2.62 1.4 4.14 1.4 1.52 0 2.98-.49 4.14-1.4 1.16-.91 1.7-2.28 1.7-3.71 0-1.43-.54-2.8-1.7-3.71-1.16-.91-2.62-1.4-4.14-1.4Zm0 4.9c-.46 0-.91-.15-1.26-.43-.36-.28-.56-.67-.56-1.09 0-.41.2-.8.56-1.08.35-.28.8-.43 1.26-.43.46 0 .91.15 1.26.43.36.28.56.67.56 1.08 0 .42-.2.81-.56 1.09-.35.28-.8.43-1.26.43Z" fill="#1A1A1A"/>
  <path d="M20.31 6.89c-.69 0-1.36.17-1.96.5l-.14.07v-3.1h-2.19V18h2.19v-3.1l.14.07c.6.33 1.27.5 1.96.5 2.16 0 4.16-1.25 4.16-3.79 0-2.54-1.97-3.79-4.16-3.79Zm-.51 5.63c-.39.23-.85.35-1.31.35-.46 0-.92-.12-1.31-.35v-2.9c.39-.23.85-.35 1.31-.35.46 0 .92.12 1.31.35.39.23.62.61.62 1.02 0 .41-.23.79-.62 1.02v.86Z" fill="#1A1A1A"/>
  <path d="M32.57 6.89c-2.13 0-3.88 1.2-3.88 3.84 0 2.64 1.75 3.83 3.88 3.83 2.13 0 3.88-1.19 3.88-3.83 0-2.64-1.75-3.84-3.88-3.84Zm-.02 5.59c-.81 0-1.36-.64-1.36-1.75 0-1.11.55-1.75 1.36-1.75.81 0 1.36.64 1.36 1.75 0 1.11-.55 1.75-1.36 1.75Z" fill="#1A1A1A"/>
  <path d="M42.13 6.89c-.69 0-1.36.17-1.96.5l-.14.07v-3.1h-2.19V18h2.19v-3.1l.14.07c.6.33 1.27.5 1.96.5 2.16 0 4.16-1.25 4.16-3.79 0-2.54-1.97-3.79-4.16-3.79Zm-.51 5.63c-.39.23-.85.35-1.31.35-.46 0-.92-.12-1.31-.35v-2.9c.39-.23.85-.35 1.31-.35.46 0 .92.12 1.31.35.39.23.62.61.62 1.02 0 .41-.23.79-.62 1.02v.86Z" fill="#1A1A1A"/>
  <path d="M51.35 6.89c-2.43 0-4.13 1.37-4.13 3.71 0 1.99 1.26 3.3 3.76 3.3h2.89v-1.87h-2.69c-1.01 0-1.54-.47-1.54-1.44 0-.97.53-1.44 1.54-1.44h2.69v-2.26h-2.52Z" fill="#1A1A1A"/>
  <path d="M59.52 6.89c-.87 0-1.57.26-2.12.78l-.14.15v-.68c0-.39-.32-.71-.71-.71h-2.05c-.39 0-.71.32-.71.71v8.65c0 .39.32.71.71.71h2.05c.39 0 .71-.32.71-.71v-2.82l.14.15c.55.55 1.25.83 2.12.83 1.77 0 3.24-1.18 3.24-3.79 0-2.61-1.47-3.79-3.24-3.79h-.01Zm-.59 5.58c-.41 0-.78-.15-1.07-.44l-.14-.14v-.01c-.29-.29-.44-.66-.44-1.07v-.89c0-.41.15-.78.44-1.07.29-.29.66-.44 1.07-.44.48 0 .88.18 1.17.54.28.33.43.73.43 1.22 0 .49-.15.89-.43 1.22-.29.36-.69.54-1.17.54v.84Z" fill="#1A1A1A"/>
  <path d="M68.21 6.89c-.87 0-1.57.26-2.12.78l-.14.15v-.68c0-.39-.32-.71-.71-.71h-2.05c-.39 0-.71.32-.71.71v8.65c0 .39.32.71.71.71h2.05c.39 0 .71-.32.71-.71v-2.82l.14.15c.55.55 1.25.83 2.12.83 1.77 0 3.24-1.18 3.24-3.79 0-2.61-1.47-3.79-3.24-3.79h-.01Zm-.59 5.58c-.41 0-.78-.15-1.07-.44l-.14-.14v-.01c-.29-.29-.44-.66-.44-1.07v-.89c0-.41.15-.78.44-1.07.29-.29.66-.44 1.07-.44.48 0 .88.18 1.17.54.28.33.43.73.43 1.22 0 .49-.15.89-.43 1.22-.29.36-.69.54-1.17.54v.84Z" fill="#1A1A1A"/>
</svg>
