<svg xmlns="http://www.w3.org/2000/svg" viewBox="0 0 72 24" fill="none">
  <path d="M34.48 10.88h-4.04v2.6h3.85v1.66h-3.85v3.42h-1.85v-8.27h5.89v.59Z" fill="#5F6368"/>
  <path d="M42.32 17.9c-.68.68-1.62 1.07-2.8 1.07-2.15 0-3.71-1.58-3.71-3.73 0-2.14 1.56-3.72 3.71-3.72 1.15 0 2.04.39 2.7 1.02l.19.17-1.17 1.22-.18-.15c-.4-.36-.89-.56-1.54-.56-1.17 0-2.09.95-2.09 2.02 0 1.07.92 2.02 2.09 2.02.76 0 1.22-.27 1.58-.62.28-.28.44-.66.5-1.17h-2.11v-1.58h3.78c.05.21.08.53.08.88 0 1.3-.46 2.4-1.14 3.06v.13Z" fill="#5F6368"/>
  <path d="M47.37 10.45c2.15 0 3.57 1.57 3.57 3.71v.31h-5.39c.14 1.01.92 1.69 1.95 1.69.65 0 1.11-.22 1.47-.58l.18-.18 1.15 1.17-.16.17c-.63.67-1.54 1.11-2.67 1.11-2.1 0-3.7-1.58-3.7-3.73 0-2.14 1.56-3.67 3.6-3.67Zm-.02 1.53c-.84 0-1.52.56-1.82 1.49h3.56c-.07-.88-.73-1.49-1.74-1.49Z" fill="#5F6368"/>
  <path d="M57.77 12.25v7.25h-1.82v-7.25h-2.07v-1.66h5.96v1.66h-2.07Z" fill="#5F6368"/>
  <path d="M67.17 14.9h-7.17c.07 1.09.86 1.86 1.98 1.86.64 0 1.06-.2 1.42-.55l.17-.17 1.13 1.19-.16.16c-.64.66-1.48 1.04-2.58 1.04-2.12 0-3.68-1.6-3.68-3.74 0-2.14 1.56-3.72 3.67-3.72 2.07 0 3.36 1.58 3.36 3.58v.35h-2.14Zm-2.14-4.15c-.83 0-1.48.57-1.77 1.49h3.46c-.05-.85-.64-1.49-1.69-1.49Z" fill="#5F6368"/>
  <path d="M20.96 12.27c0-.44-.04-.87-.11-1.29h-6.23v2.48h3.6c-.17.99-.72 1.84-1.55 2.4l-.01.01 2.5 1.94c1.47-1.36 2.32-3.36 2.32-5.54h-.52Z" fill="#4285F4"/>
  <path d="M14.62 18.87c2.11 0 3.89-.7 5.18-1.89l-2.5-1.94c-.7.47-1.6.75-2.67.75-2.05 0-3.79-1.38-4.41-3.24h-.01l-2.58 1.99c1.26 2.5 3.84 4.33 7 4.33h-.01Z" fill="#34A853"/>
  <path d="M10.21 11.55c-.32-.94-.32-1.96 0-2.9v-.01l-2.58-1.99c-1.35 2.69-1.35 5.9 0 8.59l2.58-1.99v.3Z" fill="#FBBC04"/>
  <path d="M10.38 8.47c.6-.94 1.59-1.56 2.74-1.6 1.01-.04 1.97.32 2.71 1.01l2.01-2.01c-1.28-1.2-2.96-1.87-4.72-1.87-3.16 0-5.74 1.83-7 4.33l2.58 1.99c.46-1.33 1.41-2.4 2.68-2.85Z" fill="#EA4335"/>
</svg>
