<svg xmlns="http://www.w3.org/2000/svg" viewBox="0 0 72 24" fill="none">
  <path d="M32.13 15.9c-.25.11-.55.17-.91.17-.94 0-1.41-.55-1.41-1.65v-4.04h1.82V8.79h-1.82V5.94h-2.21v2.85h-1.55v1.59h1.55v4.22c0 2.05 1.06 3.28 3.01 3.28.77 0 1.46-.18 2.04-.52l-.52-1.46Z" fill="#00BAF2"/>
  <path d="M40.42 8.79h-2.21v7.2h2.21V8.79Z" fill="#00BAF2"/>
  <path d="M47.45 13.78c0 .79-.55 1.21-1.31 1.21-.76 0-1.31-.42-1.31-1.21v-4.99h-2.21v5.29c0 1.97 1.28 3.23 3.52 3.23s3.52-1.26 3.52-3.23v-5.29h-2.21v4.99Z" fill="#00BAF2"/>
  <path d="M54.05 8.7c-2.16 0-3.82 1.42-3.82 3.86s1.66 3.86 3.82 3.86 3.82-1.42 3.82-3.86-1.66-3.86-3.82-3.86Zm0 5.37c-.85 0-1.47-.6-1.47-1.51s.62-1.51 1.47-1.51 1.47.6 1.47 1.51-.62 1.51-1.47 1.51Z" fill="#00BAF2"/>
  <path d="M63.18 8.7c-2.16 0-3.82 1.42-3.82 3.86s1.66 3.86 3.82 3.86 3.82-1.42 3.82-3.86-1.66-3.86-3.82-3.86Zm0 5.37c-.85 0-1.47-.6-1.47-1.51s.62-1.51 1.47-1.51 1.47.6 1.47 1.51-.62 1.51-1.47 1.51Z" fill="#00BAF2"/>
  <path d="M20.01 11.1c.3-.3.46-.69.46-1.11 0-.87-.67-1.57-1.57-1.57h-2.89v4.72h2.89c.9 0 1.57-.7 1.57-1.57 0-.42-.16-.81-.46-1.11v1.36Z" fill="#002970"/>
  <path d="M19.38 11.1c-.2.2-.32.47-.32.77 0 .6.47 1.09 1.09 1.09h1.6l1.39-1.39h-1.39c-.3 0-.57-.12-.77-.32l-1.6-.15Z" fill="#00BAF2"/>
  <path d="M19.38 11.1c-.2.2-.32.47-.32.77 0 .6.47 1.09 1.09 1.09h1.6l1.39-1.39h-1.39c-.3 0-.57-.12-.77-.32l-1.6-.15Z" fill="#002970"/>
  <path d="M16.17 8.42c.2.2.32.47.32.77 0 .6-.47 1.09-1.09 1.09h-1.39l-1.39-1.39h1.39c.3 0 .57.12.77.32l1.39-.79Z" fill="#00BAF2"/>
  <path d="M16.7 8.94c.2-.2.32-.47.32-.77 0-.6-.47-1.09-1.09-1.09h-1.6l-1.39 1.39h1.39c.3 0 .57.12.77.32l1.6.15Z" fill="#00A8B5"/>
  <path d="M18.5 10.73c-.2-.2-.47-.32-.77-.32h-1.39l-1.39 1.39h1.39c.3 0 .57-.12.77-.32l1.39-.75Z" fill="#002970"/>
</svg>
