<svg xmlns="http://www.w3.org/2000/svg" viewBox="0 0 72 24" fill="none">
  <path d="M18.64 5.91c.37.15.69.36.95.63l3.58 3.57c.76.76.76 1.98 0 2.74l-8.49 8.49c-.76.76-1.98.76-2.74 0L8.36 19.9c-.76-.76-.76-1.98 0-2.74l7.18-7.18-2.41-2.41c-.76-.76-.76-1.98 0-2.74s1.98-.76 2.74 0l1.19 1.2c.32.32.68.56 1.08.72.12.04.33.12.5.16Z" fill="#5F259F"/>
  <path d="M30.75 14.76c-.43-.15-.69-.29-.92-.47-.53-.4-.82-.97-.82-1.73 0-1.15.73-2.01 1.95-2.01.73 0 1.33.28 1.76.81l1.53-1.11c-.68-.88-1.74-1.42-3.08-1.42-2.3 0-3.9 1.65-3.9 3.77 0 1.07.38 2.01 1.3 2.61.38.25.8.43 1.45.63.82.25 1.1.36 1.29.52.26.22.39.53.39.96 0 .82-.63 1.35-1.65 1.35-.93 0-1.62-.44-1.98-1.13l-1.63 1.05c.68 1.16 1.82 1.82 3.54 1.82 2.41 0 4.17-1.44 4.17-3.62 0-1.63-.83-2.47-2.4-3l-.07.02Z" fill="#5F259F"/>
  <path d="M39.77 7.66c-.99 0-1.79.8-1.79 1.79s.8 1.79 1.79 1.79 1.79-.8 1.79-1.79-.8-1.79-1.79-1.79Z" fill="#5F259F"/>
  <path d="M35.95 11.46c-.37 0-.67.3-.67.67v6.5c0 .37.3.67.67.67h2.94c.37 0 .67-.3.67-.67v-6.5c0-.37-.3-.67-.67-.67h-2.94Z" fill="#5F259F"/>
  <path d="M48.49 11.27c-1.75 0-2.93.86-3.6 1.89v-1.08c0-.37-.3-.67-.67-.67h-2.64c-.37 0-.67.3-.67.67v6.5c0 .37.3.67.67.67h2.94c.37 0 .67-.3.67-.66l.01-3.15c0-1.33.55-2.15 1.71-2.15.93 0 1.36.54 1.36 1.53v4.27c0 .37.3.67.66.67h2.94c.37 0 .67-.3.67-.67v-4.67c0-2.16-1.18-3.45-3.45-3.45h.01Z" fill="#5F259F"/>
  <path d="M60.85 11.27c-1.91 0-3.19 1.02-3.19 2.57 0 1.06.56 1.78 1.73 2.25l1.31.51c.49.19.69.38.69.74 0 .47-.46.79-1.13.79-.79 0-1.31-.32-1.57-.96l-1.67.94c.52 1.23 1.72 1.89 3.37 1.89 2.09 0 3.45-1.09 3.45-2.74 0-1.15-.58-1.8-1.78-2.27l-1.27-.48c-.44-.17-.65-.35-.65-.7 0-.44.4-.7.95-.7.59 0 1.02.24 1.29.79l1.59-.91c-.5-1.11-1.65-1.71-3.12-1.71Z" fill="#5F259F"/>
  <path d="M69.2 11.27c-1.2 0-2.09.53-2.66 1.37l-.01-1.14c0-.37-.3-.67-.67-.67h-2.7c-.37 0-.67.3-.67.67v10.11c0 .37.3.67.67.67h2.94c.37 0 .67-.3.67-.66l.01-3.01c.53.7 1.35 1.17 2.44 1.17 1.87 0 3.41-1.5 3.41-4.27s-1.49-4.24-3.43-4.24Zm-.98 5.72c-.76 0-1.35-.46-1.35-1.46v-.01c0-1 .59-1.46 1.35-1.46.83 0 1.31.59 1.31 1.46 0 .88-.48 1.47-1.31 1.47Z" fill="#5F259F"/>
</svg>
